<svg width="83" height="108" viewBox="0 0 83 108" fill="none" xmlns="http://www.w3.org/2000/svg">
<path d="M62.6768 21.3252L54.7497 18.4427V15C54.7497 14.7502 54.6748 14.5061 54.5347 14.2992C54.3947 14.0923 54.1958 13.9322 53.9639 13.8394L48.3076 11.5769L47.2123 7.19688C47.1447 6.92642 46.9886 6.68633 46.7689 6.51477C46.5492 6.3432 46.2784 6.25001 45.9997 6.25H44.7497V2.5C44.7497 2.16848 44.618 1.85054 44.3835 1.61612C44.1491 1.3817 43.8312 1.25 43.4997 1.25H38.4997C38.1681 1.25 37.8502 1.3817 37.6158 1.61612C37.3814 1.85054 37.2497 2.16848 37.2497 2.5V6.25H35.9997C35.7209 6.25001 35.4501 6.3432 35.2304 6.51477C35.0107 6.68633 34.8546 6.92642 34.787 7.19688L33.692 11.5769L28.0358 13.8394C27.8037 13.9321 27.6048 14.0922 27.4647 14.2991C27.3246 14.506 27.2497 14.7501 27.2497 15V18.4427L19.3225 21.3252C19.0295 21.4318 18.787 21.644 18.6425 21.9202C18.4979 22.1964 18.4618 22.5167 18.5412 22.8181L24.6422 46.0031C23.3915 47.9269 19.7497 55.0312 19.7497 72.5C19.7497 72.8315 19.8814 73.1495 20.1158 73.3839C20.3502 73.6183 20.6681 73.75 20.9997 73.75H35.9997V77.5C35.9997 77.8315 36.1314 78.1495 36.3658 78.3839C36.6002 78.6183 36.9181 78.75 37.2497 78.75H44.7497C45.0812 78.75 45.3991 78.6183 45.6335 78.3839C45.868 78.1495 45.9997 77.8315 45.9997 77.5V73.75H60.9997C61.3312 73.75 61.6491 73.6183 61.8835 73.3839C62.118 73.1495 62.2497 72.8315 62.2497 72.5C62.2497 55.0312 58.6078 47.9269 57.3572 46.0031L63.4586 22.8181C63.5379 22.5166 63.5018 22.1963 63.3571 21.9201C63.2125 21.6439 62.9699 21.4317 62.6768 21.3252ZM52.2497 15.8463V16.25C51.9181 16.25 51.6002 16.3817 51.3658 16.6161C51.1314 16.8505 50.9997 17.1685 50.9997 17.5C50.9997 17.8315 51.1314 18.1495 51.3658 18.3839C51.6002 18.6183 51.9181 18.75 52.2497 18.75V21.25C51.9181 21.25 51.6002 21.3817 51.3658 21.6161C51.1314 21.8505 50.9997 22.1685 50.9997 22.5C50.9997 22.8315 51.1314 23.1495 51.3658 23.3839C51.6002 23.6183 51.9181 23.75 52.2497 23.75V26.25C51.9181 26.25 51.6002 26.3817 51.3658 26.6161C51.1314 26.8505 50.9997 27.1685 50.9997 27.5C50.9997 27.8315 51.1314 28.1495 51.3658 28.3839C51.6002 28.6183 51.9181 28.75 52.2497 28.75V31.25C51.9181 31.25 51.6002 31.3817 51.3658 31.6161C51.1314 31.8505 50.9997 32.1685 50.9997 32.5C50.9997 32.8315 51.1314 33.1495 51.3658 33.3839C51.6002 33.6183 51.9181 33.75 52.2497 33.75V36.25C51.9181 36.25 51.6002 36.3817 51.3658 36.6161C51.1314 36.8505 50.9997 37.1685 50.9997 37.5C50.9997 37.8315 51.1314 38.1495 51.3658 38.3839C51.6002 38.6183 51.9181 38.75 52.2497 38.75V41.25C51.9181 41.25 51.6002 41.3817 51.3658 41.6161C51.1314 41.8505 50.9997 42.1685 50.9997 42.5C50.9997 42.8315 51.1314 43.1495 51.3658 43.3839C51.6002 43.6183 51.9181 43.75 52.2497 43.75V46.25C51.9181 46.25 51.6002 46.3817 51.3658 46.6161C51.1314 46.8505 50.9997 47.1685 50.9997 47.5C50.9997 47.8315 51.1314 48.1495 51.3658 48.3839C51.6002 48.6183 51.9181 48.75 52.2497 48.75V51.25C51.9181 51.25 51.6002 51.3817 51.3658 51.6161C51.1314 51.8505 50.9997 52.1685 50.9997 52.5C50.9997 52.8315 51.1314 53.1495 51.3658 53.3839C51.6002 53.6183 51.9181 53.75 52.2497 53.75V56.25H49.7497V17.5C49.7497 17.3978 49.7371 17.296 49.7123 17.1969L49.0553 14.5684L52.2497 15.8463ZM39.7497 3.75H42.2497V6.25H39.7497V3.75ZM29.7497 61.25H32.2497V63.75H29.7497V61.25ZM29.7497 15.8463L32.944 14.5684L32.2878 17.1969C32.2627 17.296 32.2499 17.3978 32.2497 17.5V58.75H29.7497V53.75C30.0812 53.75 30.3991 53.6183 30.6335 53.3839C30.868 53.1495 30.9997 52.8315 30.9997 52.5C30.9997 52.1685 30.868 51.8505 30.6335 51.6161C30.3991 51.3817 30.0812 51.25 29.7497 51.25V48.75C30.0812 48.75 30.3991 48.6183 30.6335 48.3839C30.868 48.1495 30.9997 47.8315 30.9997 47.5C30.9997 47.1685 30.868 46.8505 30.6335 46.6161C30.3991 46.3817 30.0812 46.25 29.7497 46.25V43.75C30.0812 43.75 30.3991 43.6183 30.6335 43.3839C30.868 43.1495 30.9997 42.8315 30.9997 42.5C30.9997 42.1685 30.868 41.8505 30.6335 41.6161C30.3991 41.3817 30.0812 41.25 29.7497 41.25V38.75C30.0812 38.75 30.3991 38.6183 30.6335 38.3839C30.868 38.1495 30.9997 37.8315 30.9997 37.5C30.9997 37.1685 30.868 36.8505 30.6335 36.6161C30.3991 36.3817 30.0812 36.25 29.7497 36.25V33.75C30.0812 33.75 30.3991 33.6183 30.6335 33.3839C30.868 33.1495 30.9997 32.8315 30.9997 32.5C30.9997 32.1685 30.868 31.8505 30.6335 31.6161C30.3991 31.3817 30.0812 31.25 29.7497 31.25V28.75C30.0812 28.75 30.3991 28.6183 30.6335 28.3839C30.868 28.1495 30.9997 27.8315 30.9997 27.5C30.9997 27.1685 30.868 26.8505 30.6335 26.6161C30.3991 26.3817 30.0812 26.25 29.7497 26.25V23.75C30.0812 23.75 30.3991 23.6183 30.6335 23.3839C30.868 23.1495 30.9997 22.8315 30.9997 22.5C30.9997 22.1685 30.868 21.8505 30.6335 21.6161C30.3991 21.3817 30.0812 21.25 29.7497 21.25V18.75C30.0812 18.75 30.3991 18.6183 30.6335 18.3839C30.868 18.1495 30.9997 17.8315 30.9997 17.5C30.9997 17.1685 30.868 16.8505 30.6335 16.6161C30.3991 16.3817 30.0812 16.25 29.7497 16.25V15.8463ZM43.4997 76.25H38.4997V73.75H43.4997V76.25ZM59.7431 71.25H22.2562C22.4495 52.7473 26.9108 47.1094 26.9487 47.0634C27.0803 46.9099 27.1727 46.7267 27.218 46.5297C27.2632 46.3326 27.26 46.1274 27.2086 45.9319L21.2487 23.2848L27.2497 21.1028V65C27.2497 65.3315 27.3814 65.6495 27.6158 65.8839C27.8502 66.1183 28.1681 66.25 28.4997 66.25H33.4997C33.8312 66.25 34.1491 66.1183 34.3835 65.8839C34.618 65.6495 34.7497 65.3315 34.7497 65V17.6539L36.9756 8.75H45.0237L47.2497 17.6539V57.5C47.2497 57.8315 47.3814 58.1495 47.6158 58.3839C47.8502 58.6183 48.1681 58.75 48.4997 58.75H53.4997C53.8312 58.75 54.1491 58.6183 54.3835 58.3839C54.618 58.1495 54.7497 57.8315 54.7497 57.5V46.2622C54.7495 46.5526 54.8534 46.8335 55.0425 47.0539C55.0884 47.1094 59.5498 52.7473 59.7431 71.25ZM54.79 45.9319C54.7657 46.0248 54.7519 46.1202 54.7489 46.2162V21.1028L60.7498 23.2848L54.79 45.9319Z" fill="#BDBDBD"/>
<path d="M2.14865 96.7273H1.05135V104H2.14865V96.7273ZM3.73643 104H4.79822V100.637C4.79822 99.902 5.31314 99.3906 5.91683 99.3906C6.50632 99.3906 6.9147 99.7812 6.9147 100.374V104H7.97294V100.523C7.97294 99.8665 8.37422 99.3906 9.06669 99.3906C9.62777 99.3906 10.0894 99.7031 10.0894 100.442V104H11.1512V100.342C11.1512 99.0959 10.4552 98.4744 9.46797 98.4744C8.68317 98.4744 8.09368 98.8509 7.83089 99.4332H7.77408C7.53615 98.8366 7.03544 98.4744 6.30746 98.4744C5.58658 98.4744 5.05035 98.8331 4.82308 99.4332H4.75561V98.5455H3.73643V104ZM14.2367 104.121C15.1387 104.121 15.6465 103.663 15.8489 103.254H15.8915V104H16.9284V100.378C16.9284 98.7905 15.6784 98.4744 14.812 98.4744C13.8247 98.4744 12.9157 98.8722 12.5605 99.8665L13.5584 100.094C13.7147 99.7067 14.1124 99.3338 14.8262 99.3338C15.5115 99.3338 15.8631 99.6925 15.8631 100.31V100.335C15.8631 100.722 15.4654 100.715 14.4853 100.829C13.4519 100.95 12.3936 101.219 12.3936 102.459C12.3936 103.531 13.1997 104.121 14.2367 104.121ZM14.4675 103.268C13.8674 103.268 13.4341 102.999 13.4341 102.473C13.4341 101.905 13.9384 101.702 14.5527 101.621C14.8972 101.575 15.714 101.482 15.8667 101.33V102.033C15.8667 102.679 15.3517 103.268 14.4675 103.268ZM20.7046 106.159C22.0931 106.159 23.1656 105.523 23.1656 104.121V98.5455H22.1251V99.4297H22.0469C21.8587 99.0923 21.4823 98.4744 20.4667 98.4744C19.1492 98.4744 18.1798 99.5149 18.1798 101.251C18.1798 102.991 19.1705 103.918 20.4596 103.918C21.461 103.918 21.8481 103.354 22.0398 103.006H22.1073V104.078C22.1073 104.934 21.5214 105.303 20.7153 105.303C19.831 105.303 19.4866 104.859 19.2984 104.547L18.3857 104.923C18.6734 105.591 19.4013 106.159 20.7046 106.159ZM20.694 103.038C19.7458 103.038 19.2522 102.31 19.2522 101.237C19.2522 100.19 19.7352 99.3764 20.694 99.3764C21.6208 99.3764 22.118 100.133 22.118 101.237C22.118 102.363 21.6102 103.038 20.694 103.038ZM27.0154 104.11C28.205 104.11 29.0467 103.524 29.2881 102.636L28.2832 102.455C28.0914 102.97 27.6298 103.233 27.0261 103.233C26.117 103.233 25.5062 102.643 25.4778 101.592H29.3556V101.216C29.3556 99.245 28.1766 98.4744 26.9408 98.4744C25.4209 98.4744 24.4195 99.6321 24.4195 101.308C24.4195 103.002 25.4067 104.11 27.0154 104.11ZM25.4813 100.797C25.5239 100.023 26.085 99.3516 26.9479 99.3516C27.7718 99.3516 28.3116 99.9624 28.3151 100.797H25.4813ZM39.2854 96.7273H38.1988V102.068H38.1313L34.431 96.7273H33.4154V104H34.5127V98.6662H34.5802L38.2769 104H39.2854V96.7273ZM43.1735 104.11C44.7111 104.11 45.7161 102.984 45.7161 101.298C45.7161 99.6001 44.7111 98.4744 43.1735 98.4744C41.6358 98.4744 40.6309 99.6001 40.6309 101.298C40.6309 102.984 41.6358 104.11 43.1735 104.11ZM43.177 103.219C42.1721 103.219 41.7033 102.342 41.7033 101.294C41.7033 100.25 42.1721 99.3622 43.177 99.3622C44.1749 99.3622 44.6436 100.25 44.6436 101.294C44.6436 102.342 44.1749 103.219 43.177 103.219ZM49.5224 98.5455H48.4038V97.2386H47.342V98.5455H46.543V99.3977H47.342V102.619C47.3385 103.609 48.0949 104.089 48.933 104.071C49.2703 104.067 49.4976 104.004 49.6219 103.957L49.4301 103.08C49.3591 103.094 49.2277 103.126 49.0572 103.126C48.7128 103.126 48.4038 103.013 48.4038 102.398V99.3977H49.5224V98.5455ZM53.5787 104H54.676V100.829H57.7655V99.8878H54.676V97.6719H58.0886V96.7273H53.5787V104ZM61.325 104.11C62.8627 104.11 63.8676 102.984 63.8676 101.298C63.8676 99.6001 62.8627 98.4744 61.325 98.4744C59.7874 98.4744 58.7824 99.6001 58.7824 101.298C58.7824 102.984 59.7874 104.11 61.325 104.11ZM61.3286 103.219C60.3236 103.219 59.8549 102.342 59.8549 101.294C59.8549 100.25 60.3236 99.3622 61.3286 99.3622C62.3265 99.3622 62.7952 100.25 62.7952 101.294C62.7952 102.342 62.3265 103.219 61.3286 103.219ZM68.5831 101.738C68.5866 102.665 67.8977 103.105 67.3011 103.105C66.6442 103.105 66.1896 102.629 66.1896 101.887V98.5455H65.1278V102.015C65.1278 103.368 65.87 104.071 66.9176 104.071C67.7379 104.071 68.2955 103.638 68.5476 103.055H68.6044V104H69.6484V98.5455H68.5831V101.738ZM72.2119 100.761C72.2119 99.8913 72.7446 99.3942 73.4832 99.3942C74.2041 99.3942 74.6409 99.8665 74.6409 100.658V104H75.7027V100.531C75.7027 99.1811 74.9605 98.4744 73.8454 98.4744C73.0251 98.4744 72.4889 98.8544 72.2368 99.4332H72.1693V98.5455H71.1501V104H72.2119V100.761ZM79.2436 104.107C80.2379 104.107 80.6285 103.499 80.8203 103.151H80.9091V104H81.946V96.7273H80.8842V99.4297H80.8203C80.6285 99.0923 80.2663 98.4744 79.2507 98.4744C77.9332 98.4744 76.9637 99.5149 76.9637 101.283C76.9637 103.048 77.919 104.107 79.2436 104.107ZM79.4779 103.201C78.5298 103.201 78.0362 102.366 78.0362 101.273C78.0362 100.19 78.5191 99.3764 79.4779 99.3764C80.4048 99.3764 80.902 100.133 80.902 101.273C80.902 102.42 80.3941 103.201 79.4779 103.201Z" fill="#828282"/>
</svg>
